<?xml version="1.0" encoding="utf-8"?>
<!-- Generator: Adobe Illustrator 27.5.0, SVG Export Plug-In . SVG Version: 6.00 Build 0)  -->
<svg version="1.1" xmlns="http://www.w3.org/2000/svg" xmlns:xlink="http://www.w3.org/1999/xlink" x="0px" y="0px"
	 viewBox="0 0 3710 3710" style="enable-background:new 0 0 3710 3710;" xml:space="preserve">
<g id="Background">
	<g>
		<g>
			<rect style="fill:#FFFFFF;" width="3710" height="3710"/>
		</g>
	</g>
</g>
<g id="Illustration">
	<g>
		<linearGradient id="SVGID_1_" gradientUnits="userSpaceOnUse" x1="3591.3489" y1="4078.5054" x2="1108.6357" y2="995.1312">
			<stop  offset="0" style="stop-color:#DAE3FE"/>
			<stop  offset="1" style="stop-color:#E9EFFD"/>
		</linearGradient>
		<path style="fill:url(#SVGID_1_);" d="M2908.339,2862.534c-57.027,60.036-110.985,98.752-153.617,129.34
			c-501.124,359.562-1094.087,254.752-1220.109,229.156c-186.094-37.797-545.81-110.857-805.878-416.692
			c-393.461-462.702-332.193-1191.677-26.998-1672.883c55.825-88.021,350.709-576.557,950.058-654.902
			c362.72-47.414,785.535,48.214,1091.726,304.742C3386.244,1319.769,3340.489,2407.581,2908.339,2862.534z"/>
		<g>
			<path style="fill:#91B3FA;" d="M1877.741,2213.195c0,0,129.582-1005.443,555.069-1591.158
				c28.602-39.373,89.372-31.726,107.046,13.617C2658.035,938.849,2921.263,1868.503,1877.741,2213.195z"/>
			<path style="opacity:0.5;fill:#FFFFFF;" d="M1968.849,2139.689c-2.15,2.593,1.409,5.962,3.887,3.682
				c91.361-84.075,436.491-486.304,502.3-1222.697c0.211-2.365-3.29-2.891-3.705-0.553
				C2440.765,1092.423,2308.775,1729.784,1968.849,2139.689z"/>
		</g>
		<g>
			<path style="fill:#BDD0FB;" d="M2271.941,1899.003c0,0,224.951-733.86,617.209-1116.725
				c26.369-25.737,70.748-12.278,78.154,23.816C3016.833,1047.45,3094.712,1774.849,2271.941,1899.003z"/>
			<path style="opacity:0.5;fill:#FFFFFF;" d="M2346.506,1857.333c-1.865,1.6,0.281,4.462,2.343,3.126
				c76.047-49.241,373.726-296.123,511.577-817.688c0.443-1.676-2.011-2.484-2.596-0.853
				C2814.664,1162.089,2641.385,1604.29,2346.506,1857.333z"/>
		</g>
		<g>
			<g>
				
					<linearGradient id="SVGID_00000057843081140910693700000007701395394130806171_" gradientUnits="userSpaceOnUse" x1="3275.0576" y1="377.2129" x2="2842.9624" y2="1184.8195">
					<stop  offset="0" style="stop-color:#09005D"/>
					<stop  offset="1" style="stop-color:#1A0F91"/>
				</linearGradient>
				<path style="fill:url(#SVGID_00000057843081140910693700000007701395394130806171_);" d="M2877.972,1704.108
					c-0.118-3.066-13.243-307.805-143.945-415.285c-37.545-30.872-81.809-42.558-131.574-34.719
					c-106.854,16.821-180.814,97.095-219.827,238.593c-29.449,106.819-26.689,209.79-26.657,210.818l-17.308,0.527
					c-0.032-1.053-2.863-106.64,27.274-215.946c40.404-146.548,121.26-233.376,233.826-251.097
					c54.866-8.639,103.747,4.303,145.279,38.465c136.702,112.436,149.746,415.155,150.233,427.985L2877.972,1704.108z"/>
				
					<linearGradient id="SVGID_00000176729435010952071670000003153741750277855617_" gradientUnits="userSpaceOnUse" x1="2997.5476" y1="1807.9071" x2="1644.6742" y2="3484.853">
					<stop  offset="0" style="stop-color:#4F52FF"/>
					<stop  offset="1" style="stop-color:#4042E2"/>
				</linearGradient>
				<path style="fill:url(#SVGID_00000176729435010952071670000003153741750277855617_);" d="M1846.333,3017.886l204.365-1409.302
					l767.719-12.908l247.447,1500.537H1912.81C1871.794,3096.213,1840.347,3059.161,1846.333,3017.886z"/>
				
					<linearGradient id="SVGID_00000042713266561528376280000005413883280726112902_" gradientUnits="userSpaceOnUse" x1="1769.9526" y1="2867.1501" x2="2695.8723" y2="2481.3499">
					<stop  offset="0" style="stop-color:#4F52FF"/>
					<stop  offset="1" style="stop-color:#4042E2"/>
				</linearGradient>
				<path style="fill:url(#SVGID_00000042713266561528376280000005413883280726112902_);" d="M2967.519,1608.584l-149.102-12.908
					l247.447,1500.537h148.023c30.011,0,52.44-28.055,46.322-57.941L2967.519,1608.584z"/>
			</g>
			
				<linearGradient id="SVGID_00000111884960096697577000000014672893481484600461_" gradientUnits="userSpaceOnUse" x1="3145.9878" y1="308.1552" x2="2713.8933" y2="1115.7604">
				<stop  offset="0" style="stop-color:#09005D"/>
				<stop  offset="1" style="stop-color:#1A0F91"/>
			</linearGradient>
			<path style="fill:url(#SVGID_00000111884960096697577000000014672893481484600461_);" d="M2182.346,1709.209
				c-4.658,0-8.505-3.705-8.649-8.394c-0.032-1.053-2.863-106.64,27.273-215.946c40.404-146.548,121.259-233.376,233.828-251.097
				c54.869-8.634,103.745,4.305,145.279,38.464c136.702,112.436,149.744,415.155,150.233,427.985
				c0.183,4.778-3.542,8.798-8.321,8.98c-4.86,0.222-8.798-3.546-8.98-8.321c-0.118-3.066-13.241-307.804-143.945-415.285
				c-37.545-30.871-81.809-42.562-131.574-34.719c-106.855,16.821-180.816,97.095-219.827,238.593
				c-29.45,106.819-26.689,209.79-26.657,210.818c0.146,4.778-3.612,8.771-8.39,8.918
				C2182.525,1709.207,2182.436,1709.209,2182.346,1709.209z"/>
		</g>
		<g>
			<g>
				<g>
					
						<linearGradient id="SVGID_00000116955821475547194510000017575806037039819941_" gradientUnits="userSpaceOnUse" x1="1013.08" y1="2824.7893" x2="2070.8669" y2="98.0466" gradientTransform="matrix(1 -0.0023 0.0023 1 -2.4796 -0.3106)">
						<stop  offset="0" style="stop-color:#09005D"/>
						<stop  offset="1" style="stop-color:#1A0F91"/>
					</linearGradient>
					<path style="fill:url(#SVGID_00000116955821475547194510000017575806037039819941_);" d="M2211.547,3045.944
						c-0.534,52.615-45.735,95.272-100.976,95.393l-1335.379,2.91c-55.641,0.121-101.827-42.507-103.148-95.329L609.818,561.682
						c-1.48-59.139,45.221-106.963,104.297-106.68l1417.488,6.776c58.625,0.281,105.652,48.35,105.055,107.23L2211.547,3045.944z"/>
					
						<linearGradient id="SVGID_00000129894834602785053850000007190117482583927938_" gradientUnits="userSpaceOnUse" x1="1364.5179" y1="2202.332" x2="1755.2698" y2="-1044.9612">
						<stop  offset="0" style="stop-color:#FF928E"/>
						<stop  offset="1" style="stop-color:#FE7062"/>
					</linearGradient>
					<path style="fill:url(#SVGID_00000129894834602785053850000007190117482583927938_);" d="M2091.184,712.557
						c0.398-56.828-46.226-103.206-104.155-103.46l-1125.051-4.946c-58.286-0.256-104.535,45.873-103.288,102.905l46.249,2114.742
						c1.133,51.798,46.943,93.627,102.308,93.54l1068.843-1.696c55.043-0.088,99.946-41.924,100.308-93.553L2091.184,712.557z"/>
					
						<linearGradient id="SVGID_00000126314985956603985910000017578722861292266904_" gradientUnits="userSpaceOnUse" x1="1434.0731" y1="135.7955" x2="1427.249" y2="552.0544">
						<stop  offset="0" style="stop-color:#8D55D1"/>
						<stop  offset="0.9964" style="stop-color:#1C2873"/>
					</linearGradient>
					<path style="fill:url(#SVGID_00000126314985956603985910000017578722861292266904_);" d="M1594.02,528.625
						c0.029,11.026-8.839,19.919-19.807,19.87l-292.793-1.327c-10.991-0.05-20.01-9.034-20.144-20.074l0,0
						c-0.133-11.046,8.68-19.965,19.684-19.913l293.126,1.368C1585.067,508.6,1593.992,517.592,1594.02,528.625L1594.02,528.625z"/>
				</g>
			</g>
			<g>
				<g>
					<path style="fill:#91B3FA;" d="M717.314,604.108c-7.316,0-14.124,2.717-18.041,8.896
						c-82.328,129.92-164.668,264.468-246.996,388.724c80.914,0,161.826,0,242.736,0c63.323-124.256,126.648-262.713,189.971-397.62
						C829.091,604.108,773.201,604.108,717.314,604.108z"/>
					
						<linearGradient id="SVGID_00000010284958119905964220000013420196272640533676_" gradientUnits="userSpaceOnUse" x1="863.2587" y1="998.5747" x2="909.5546" y2="453.3114">
						<stop  offset="0" style="stop-color:#4F52FF"/>
						<stop  offset="1" style="stop-color:#4042E2"/>
					</linearGradient>
					<path style="fill:url(#SVGID_00000010284958119905964220000013420196272640533676_);" d="M937.748,1004.724
						c-80.911,0-161.823,0-242.735,0c63.323-133.232,126.648-266.464,189.971-399.695c59.804,0,119.607,0,179.412,0
						C1022.182,738.26,979.965,871.492,937.748,1004.724z"/>
					<g>
						<path style="fill:#91B3FA;" d="M1180.486,1004.724c-80.912,0-161.824,0-242.738,0
							c42.217-133.232,84.434-266.464,126.648-399.695c59.806,0,119.609,0,179.417,0
							C1222.703,738.26,1201.594,871.492,1180.486,1004.724z"/>
					</g>
					
						<linearGradient id="SVGID_00000182495211605523823890000011122664652548972929_" gradientUnits="userSpaceOnUse" x1="1299.2343" y1="1035.5913" x2="1345.5304" y2="490.326">
						<stop  offset="0" style="stop-color:#4F52FF"/>
						<stop  offset="1" style="stop-color:#4042E2"/>
					</linearGradient>
					<path style="fill:url(#SVGID_00000182495211605523823890000011122664652548972929_);" d="M1423.224,1004.724
						c-80.912,0-161.824,0-242.738,0c21.108-133.232,42.217-266.464,63.327-399.695c59.804,0,119.607,0,179.41,0
						C1423.224,738.26,1423.224,871.492,1423.224,1004.724z"/>
					<g>
						<path style="fill:#91B3FA;" d="M1665.961,1004.724c-80.911,0-161.823,0-242.737,0c0-133.232,0-266.464,0-399.695
							c59.806,0,119.605,0,179.415,0C1623.745,738.26,1644.853,871.492,1665.961,1004.724z"/>
					</g>
					
						<linearGradient id="SVGID_00000147213654063898343480000001446058392054854791_" gradientUnits="userSpaceOnUse" x1="1732.9531" y1="1072.4165" x2="1779.249" y2="527.1542">
						<stop  offset="0" style="stop-color:#4F52FF"/>
						<stop  offset="1" style="stop-color:#4042E2"/>
					</linearGradient>
					<path style="fill:url(#SVGID_00000147213654063898343480000001446058392054854791_);" d="M1908.699,1004.724
						c-80.916,0-161.824,0-242.738,0c-21.106-133.232-42.214-266.464-63.323-399.695c59.804,0,119.607,0,179.413,0
						C1824.266,738.26,1866.483,871.492,1908.699,1004.724z"/>
					<g>
						<path style="fill:#91B3FA;" d="M2151.435,1004.724c-80.912,0-161.824,0-242.736,0
							c-42.217-133.232-84.434-266.464-126.648-399.695c59.808,0,119.607,0,179.417,0
							C2024.787,738.26,2088.107,871.492,2151.435,1004.724z"/>
					</g>
					
						<linearGradient id="SVGID_00000168111819075326908550000014998367736676721299_" gradientUnits="userSpaceOnUse" x1="2151.9167" y1="1107.9888" x2="2198.2126" y2="562.7252">
						<stop  offset="0" style="stop-color:#4F52FF"/>
						<stop  offset="1" style="stop-color:#4042E2"/>
					</linearGradient>
					<path style="fill:url(#SVGID_00000168111819075326908550000014998367736676721299_);" d="M2147.174,613.005
						c-3.916-6.18-10.725-8.897-18.041-8.897c-55.889,0-111.778,0-167.666,0c63.319,134.907,126.64,273.364,189.967,397.62
						c80.907,0,161.819,0,242.735,0C2311.842,877.471,2229.502,742.925,2147.174,613.005z"/>
				</g>
				<g>
					<path style="fill:#BDD0FB;" d="M448.782,1001.728v69.237c0,57.667,58.587,101.171,125.44,101.171h2.603
						c66.853,0,120.47-43.505,120.47-101.171v-69.237H448.782z"/>
					
						<linearGradient id="SVGID_00000042721431740347542670000014338283566062503816_" gradientUnits="userSpaceOnUse" x1="963.5583" y1="430.7317" x2="824.67" y2="1006.8594">
						<stop  offset="0" style="stop-color:#4F52FF"/>
						<stop  offset="1" style="stop-color:#4042E2"/>
					</linearGradient>
					<path style="fill:url(#SVGID_00000042721431740347542670000014338283566062503816_);" d="M697.294,1001.728v69.237
						c0,57.667,51.672,101.171,117.396,101.171h2.559c65.724,0,117.907-43.505,117.907-101.171v-69.237H697.294z"/>
				</g>
				<g>
					<path style="fill:#BDD0FB;" d="M935.156,1001.728v69.237c0,57.667,57.237,101.171,124.089,101.171h2.603
						c66.852,0,118.27-43.505,118.27-101.171v-69.237H935.156z"/>
					
						<linearGradient id="SVGID_00000061465425194638662730000001583311772124377495_" gradientUnits="userSpaceOnUse" x1="1421.5133" y1="541.1302" x2="1282.6249" y2="1117.2585">
						<stop  offset="0" style="stop-color:#4F52FF"/>
						<stop  offset="1" style="stop-color:#4042E2"/>
					</linearGradient>
					<path style="fill:url(#SVGID_00000061465425194638662730000001583311772124377495_);" d="M1180.119,1001.728v69.237
						c0,57.667,53.871,101.171,119.595,101.171h2.559c65.724,0,119.258-43.505,119.258-101.171v-69.237H1180.119z"/>
				</g>
				<g>
					<path style="fill:#BDD0FB;" d="M1421.531,1001.728v69.237c0,57.667,55.885,101.171,122.738,101.171h2.603
						c66.853,0,116.071-43.505,116.071-101.171v-69.237H1421.531z"/>
					
						<linearGradient id="SVGID_00000124154642400689983860000006944359047364925880_" gradientUnits="userSpaceOnUse" x1="1879.4691" y1="651.5309" x2="1740.5808" y2="1227.6588">
						<stop  offset="0" style="stop-color:#4F52FF"/>
						<stop  offset="1" style="stop-color:#4042E2"/>
					</linearGradient>
					<path style="fill:url(#SVGID_00000124154642400689983860000006944359047364925880_);" d="M1662.943,1001.728v69.237
						c0,57.667,56.07,101.171,121.794,101.171h2.559c65.724,0,120.609-43.505,120.609-101.171v-69.237H1662.943z"/>
				</g>
				<g>
					<path style="fill:#BDD0FB;" d="M1907.906,1001.728v69.237c0,57.667,54.535,101.171,121.387,101.171h2.603
						c66.852,0,120.972-43.505,120.972-101.171v-69.237H1907.906z"/>
					
						<linearGradient id="SVGID_00000144338538540153516020000016148865898670257086_" gradientUnits="userSpaceOnUse" x1="2339.1758" y1="762.3535" x2="2200.2876" y2="1338.4803">
						<stop  offset="0" style="stop-color:#4F52FF"/>
						<stop  offset="1" style="stop-color:#4042E2"/>
					</linearGradient>
					<path style="fill:url(#SVGID_00000144338538540153516020000016148865898670257086_);" d="M2152.868,1001.728v69.237
						c0,57.667,51.169,101.171,116.893,101.171h2.559c65.724,0,118.409-43.505,118.409-101.171v-69.237H2152.868z"/>
				</g>
			</g>
			<g>
				
					<linearGradient id="SVGID_00000122689116929771437880000004965678914922226314_" gradientUnits="userSpaceOnUse" x1="1428.0704" y1="2317.7314" x2="1369.1807" y2="3318.8459">
					<stop  offset="0" style="stop-color:#E1473D"/>
					<stop  offset="1" style="stop-color:#E9605A"/>
				</linearGradient>
				<path style="fill:url(#SVGID_00000122689116929771437880000004965678914922226314_);" d="M1812.051,2400.1
					c0,80.609-65.347,145.956-145.956,145.956h-485.577c-80.609,0-145.956-65.347-145.956-145.956v-2.753
					c0-80.609,65.347-145.956,145.956-145.956h485.577c80.609,0,145.956,65.347,145.956,145.956V2400.1z"/>
				<g>
					<path style="fill:#FFFFFF;" d="M1205.695,2316.852c9.741-1.996,27.474-3.496,44.713-3.496c22.726,0,36.72,2.749,48.209,10.741
						c10.489,6.245,17.481,17.234,17.481,31.471c0,15.486-9.741,29.723-27.98,36.468v0.5c17.734,4.496,33.972,18.481,33.972,41.712
						c0,14.985-6.488,26.727-16.238,34.72c-11.985,10.488-31.719,15.733-62.437,15.733c-16.986,0-29.97-1.248-37.72-2.248V2316.852z
						 M1236.171,2383.29h15.733c21.23,0,33.224-9.989,33.224-24.226c0-15.738-11.994-22.978-31.476-22.978
						c-8.993,0-14.237,0.5-17.481,1.248V2383.29z M1236.171,2460.722c3.991,0.5,9.245,0.748,16.238,0.748
						c19.724,0,37.215-7.492,37.215-28.222c0-19.482-16.986-27.475-38.215-27.475h-15.238V2460.722z"/>
					<path style="fill:#FFFFFF;" d="M1380.012,2314.604v98.161c0,32.972,13.742,48.209,34.476,48.209
						c22.23,0,35.467-15.238,35.467-48.209v-98.161h30.718v96.166c0,51.953-26.726,74.931-67.185,74.931
						c-38.964,0-64.195-21.73-64.195-74.683v-96.413H1380.012z"/>
					<path style="fill:#FFFFFF;" d="M1554.085,2482.952v-70.187l-53.201-98.161h34.963l20.229,43.212
						c5.749,12.489,9.993,21.978,14.49,33.467h0.505c4.244-10.736,8.984-21.23,14.733-33.467l20.23-43.212h34.719l-55.949,97.413
						v70.935H1554.085z"/>
				</g>
			</g>
			<g>
				<path style="fill:#FFFFFF;" d="M1805.461,1479.98c-4.515-5.55-11.594-7.853-19.105-7.695l-683.761,14.344l-17.272-54.866
					c-2.401-7.644-9.589-12.538-17.718-12.325l-93.879,2.467c-10.067,0.264-18.219,7.264-18.219,17.311
					c0,10.047,8.153,16.64,18.219,16.402l80.226-1.895l145.166,463.87c2.444,7.807,9.774,13.177,18.083,13.289l479.929,6.443
					c11.263,0.151,20.407-6.917,20.407-17.567c0-10.648-9.144-17.94-20.407-18.061l-465.925-5.022l-37.394-120.44l512.013,0.776
					c10.484,0.016,19.724-6.845,22.662-16.359l80.81-261.286C1811.401,1492.55,1809.98,1485.533,1805.461,1479.98z"/>
				<path style="fill:#FFFFFF;" d="M1287.409,1959.493c-39.488-0.614-71.435,30.12-71.435,68.509
					c0,38.388,31.947,70.457,71.435,71.494c39.726,1.044,72.225-29.678,72.225-68.491
					C1359.634,1992.192,1327.135,1960.111,1287.409,1959.493z M1287.409,2062.162c-18.456-0.432-33.434-15.4-33.434-33.366
					c0-17.967,14.978-32.308,33.434-31.969c18.508,0.341,33.606,15.311,33.606,33.37
					C1321.015,2048.256,1305.917,2062.595,1287.409,2062.162z"/>
				<path style="fill:#FFFFFF;" d="M1607.335,1964.467c-41.444-0.645-74.971,30.826-74.971,70.15
					c0,39.324,33.526,72.196,74.971,73.284c41.701,1.095,75.819-30.362,75.819-70.131
					C1683.154,1998,1649.036,1965.115,1607.335,1964.467z M1607.335,2069.652c-19.371-0.453-35.091-15.796-35.091-34.201
					c0-18.406,15.72-33.091,35.091-32.735c19.427,0.358,35.276,15.703,35.276,34.205
					C1642.611,2055.424,1626.762,2070.106,1607.335,2069.652z"/>
			</g>
		</g>
		<g>
			
				<linearGradient id="SVGID_00000136375208949843470960000013117601685495844270_" gradientUnits="userSpaceOnUse" x1="9016.584" y1="1937.5963" x2="9622.8047" y2="2225.342" gradientTransform="matrix(0.9999 -0.015 0.015 0.9999 -6885.5894 17.0219)">
				<stop  offset="0" style="stop-color:#09005D"/>
				<stop  offset="1" style="stop-color:#1A0F91"/>
			</linearGradient>
			<path style="fill:url(#SVGID_00000136375208949843470960000013117601685495844270_);" d="M2566.986,1784.641
				c0,0-33.507-82.1,92.876-65.548c126.383,16.553,95.667,64.267,105.656,101.552c9.99,37.286,63.011,79.54,210.559,137.069
				c147.548,57.528,103.803,214.368,37.529,266.425c-66.274,52.056-102.417,17.456-117.832,107.303
				c-15.415,89.847-76.906,162.815-153.626,86.651c-76.72-76.164-163.921-166.228-139.534-284.325
				c24.387-118.098-3.229-95.756-50.836-149.934C2504.172,1929.657,2605.078,1877.216,2566.986,1784.641z"/>
			
				<linearGradient id="SVGID_00000142176451814760586270000001959406760456626819_" gradientUnits="userSpaceOnUse" x1="9391.293" y1="1894.1664" x2="9163.1504" y2="2174.635" gradientTransform="matrix(1 0 0 1 -6807.2744 0)">
				<stop  offset="0" style="stop-color:#FEBBBA"/>
				<stop  offset="1" style="stop-color:#FF928E"/>
			</linearGradient>
			<path style="fill:url(#SVGID_00000142176451814760586270000001959406760456626819_);" d="M2595.192,2004.479
				c-20.066-20.354-39.587,28.565-44.798,40.825c-13.157,30.957-26.835,58.742-54.605,79.956
				c-17.18,13.124-40.398,21.539-62.135,15.233c-78.291-22.712-78.654-85.6-80.416-132.706c1.815-13.361-6.199-26.604-15.906-30.735
				c-11.272-4.798-15.586-16.461-15.586-16.461s-7.661,16.983,1.755,24.944c3.29,2.783,4.256,6.071,4.153,9.183
				c-1.1-0.184-2.231-0.351-3.416-0.501c-23.534-2.942,0.087,30.743,0.087,30.743s-22.781,123.303,81.57,172.306
				c51.655,24.257,91.273,18.507,118.195,6.504c13.598-4.749,25.33-13.279,35.362-24.158c4.04-4.033,6.103-6.756,6.103-6.756
				l0.006-0.389C2607.204,2119.51,2614.434,2023.998,2595.192,2004.479z"/>
			
				<linearGradient id="SVGID_00000067197776188333648220000001706116999235645585_" gradientUnits="userSpaceOnUse" x1="3260.281" y1="1876.7628" x2="2643.0012" y2="2190.5459">
				<stop  offset="0" style="stop-color:#FF928E"/>
				<stop  offset="1" style="stop-color:#FE7062"/>
			</linearGradient>
			<path style="fill:url(#SVGID_00000067197776188333648220000001706116999235645585_);" d="M2596.061,1996.656
				c20.506-6.148,80.215-17.498,137.007,34.913c9.632,8.889,13.569,22.396,10.134,35.044
				c-15.254,56.158-55.501,222.077-20.212,293.867c0,0-62.188,68.555-130.033,13.301c0,0-30.441-132.669-70.311-190.911
				c-27.527-40.21,43.892-150.994,61.963-177.758C2587.345,2001.059,2591.377,1998.06,2596.061,1996.656z"/>
			
				<linearGradient id="SVGID_00000101806045162067776910000009839199133313959854_" gradientUnits="userSpaceOnUse" x1="553.0904" y1="1144.5797" x2="569.5038" y2="1028.0443" gradientTransform="matrix(0.9602 0.2794 -0.2794 0.9602 2393.1538 797.6744)">
				<stop  offset="0" style="stop-color:#FEBBBA"/>
				<stop  offset="1" style="stop-color:#FF928E"/>
			</linearGradient>
			<path style="fill:url(#SVGID_00000101806045162067776910000009839199133313959854_);" d="M2652.682,1885.083
				c0,0,30.327,85.784,32.609,123.629c0,0-33.519,15.242-65.103-10.483c0,0-3.314-85.684-8.103-101.027L2652.682,1885.083z"/>
			
				<linearGradient id="SVGID_00000009559568297885174620000011862256875912885397_" gradientUnits="userSpaceOnUse" x1="-6616.0093" y1="534.4385" x2="-6440.7241" y2="735.9696" gradientTransform="matrix(-0.967 -0.2547 -0.2547 0.967 -3586.9602 -391.4206)">
				<stop  offset="0" style="stop-color:#FEBBBA"/>
				<stop  offset="1" style="stop-color:#FF928E"/>
			</linearGradient>
			<path style="fill:url(#SVGID_00000009559568297885174620000011862256875912885397_);" d="M2598.426,1789.078
				c6.203-10.854,17.719-17.598,30.22-17.674c16.73-0.102,39.559,2.179,51.354,13.921c19.985,19.896,3.81,81.286,3.81,81.286
				s-53.55,80.899-102.113,50.406C2544.577,1893.711,2579.776,1821.715,2598.426,1789.078z"/>
			
				<linearGradient id="SVGID_00000133499877551249650480000010400957486763865786_" gradientUnits="userSpaceOnUse" x1="8971.9336" y1="346.5919" x2="9578.1689" y2="634.3445" gradientTransform="matrix(0.967 0.2547 -0.2547 0.967 -6238.9502 -1090.1372)">
				<stop  offset="0" style="stop-color:#09005D"/>
				<stop  offset="1" style="stop-color:#1A0F91"/>
			</linearGradient>
			<path style="fill:url(#SVGID_00000133499877551249650480000010400957486763865786_);" d="M2724.092,1789.175
				c-5.309-38.781-53.227-40.332-53.227-40.332s-37.439-0.932-46.578,13.711c-4.111,6.587,3.954,16.132,15.454,25.073
				c25.611,19.915,39.749,51.379,37.571,83.749l-0.501,7.451C2676.811,1878.827,2729.401,1827.955,2724.092,1789.175z"/>
			
				<linearGradient id="SVGID_00000057119364378102899120000007927582387379561901_" gradientUnits="userSpaceOnUse" x1="-198.1172" y1="1457.1599" x2="-44.6582" y2="1633.5967" gradientTransform="matrix(0.9698 0.2442 -0.2442 0.9698 3182.0625 417.1211)">
				<stop  offset="0" style="stop-color:#FEBBBA"/>
				<stop  offset="1" style="stop-color:#FF928E"/>
			</linearGradient>
			<path style="fill:url(#SVGID_00000057119364378102899120000007927582387379561901_);" d="M2656.338,1868.566
				c0,0,29.55-36.86,42.673-14.012c13.123,22.847-26.283,41.799-40.563,30.868L2656.338,1868.566z"/>
			
				<linearGradient id="SVGID_00000183219547025176434570000001257546343459773320_" gradientUnits="userSpaceOnUse" x1="-1408.4507" y1="3317.2681" x2="-1042.3096" y2="2670.9504" gradientTransform="matrix(-1 -0.0095 -0.0095 1 1498.6437 56.9446)">
				<stop  offset="0" style="stop-color:#FEBBBA"/>
				<stop  offset="1" style="stop-color:#FF928E"/>
			</linearGradient>
			<path style="fill:url(#SVGID_00000183219547025176434570000001257546343459773320_);" d="M2513.754,2652.333
				c0.234,6.023-10.341,53.796-16.096,79.278c-2.316,10.253-0.703,20.983,4.517,30.106l199.307,335.444
				c2.412,4.057,4.166,8.453,5.234,13.051c3.652,15.741,11.228,54.321,7.273,89.417l-10.311,21.414l44.591-10.125l9.702-119.749
				l-12.624-7.698c-10.906-6.649-19.397-16.59-24.26-28.402c-18.022-43.777-62.775-155.211-74.311-209.518
				c-13.111-61.719-81.649-111.85-81.649-111.85l12.041-28.467L2513.754,2652.333z"/>
			
				<linearGradient id="SVGID_00000127035297469208059180000008508410507185503133_" gradientUnits="userSpaceOnUse" x1="2809.8691" y1="2870.5508" x2="2728.4895" y2="3273.9854">
				<stop  offset="0" style="stop-color:#09005D"/>
				<stop  offset="1" style="stop-color:#1A0F91"/>
			</linearGradient>
			<path style="fill:url(#SVGID_00000127035297469208059180000008508410507185503133_);" d="M2797.826,3169.711
				c0,0-24.079-38.177-26.912-53.038c-2.833-14.86-10.721-41.103-25.566-33.202c0,0-6.996,72.189-4.584,100.396
				c2.412,28.207-31.887,27.3-31.887,27.3s-9.453,1.329-16.375,8.25c-4.78,4.779-1.362,13.071,5.383,13.506
				c11.223,0.723,29.052,0.912,47.771-2.705c6.542-1.264,11.392-6.832,11.789-13.483l4.941-83.083l30.375,38.354L2797.826,3169.711z
				"/>
			
				<linearGradient id="SVGID_00000003080370255826519360000016340118452221725607_" gradientUnits="userSpaceOnUse" x1="-1174.6788" y1="2897.0669" x2="-1722.2568" y2="3072.1646" gradientTransform="matrix(-1 -0.0095 -0.0095 1 1498.6437 56.9446)">
				<stop  offset="0" style="stop-color:#FEBBBA"/>
				<stop  offset="1" style="stop-color:#FF928E"/>
			</linearGradient>
			<path style="fill:url(#SVGID_00000003080370255826519360000016340118452221725607_);" d="M2632.818,2705.765
				c0,0,7.029,300.053,7.982,342.667c0.952,42.615-6.73,137.054-49.45,165.283l18.589,13.763c0,0,23.232-19.746,45.927-57.746
				c25.496-42.69,33.206-50.489,33.206-50.489l-8.46-17.326c-3.704-7.585-4.793-16.166-3.087-24.434
				c9.219-44.681,40.016-193.298,48.417-225.303c9.917-37.781,10.622-88.232-23.879-130.463
				C2667.564,2679.486,2632.818,2705.765,2632.818,2705.765z"/>
			
				<linearGradient id="SVGID_00000000921672735815207920000013854575762069023905_" gradientUnits="userSpaceOnUse" x1="2735.7441" y1="2916.5024" x2="2604.1516" y2="3287.0388">
				<stop  offset="0" style="stop-color:#09005D"/>
				<stop  offset="1" style="stop-color:#1A0F91"/>
			</linearGradient>
			<path style="fill:url(#SVGID_00000000921672735815207920000013854575762069023905_);" d="M2672.268,3241.001
				c1.326,0.013,2.452-0.936,2.639-2.248c1.423-10.004,7.339-50.108,12.183-60.492c5.548-11.893,23.67-61.949-0.01-66.198
				c0,0-58.868,86.006-70.167,97.602c-11.301,11.596-25.563,4.051-25.563,4.051s-11.01,3.253-19.314,13.863
				c-3.951,5.05-0.27,12.464,6.143,12.525l39.651,0.378c11.515,0.109,21.872-6.886,26.153-17.576
				c6.979-17.433,18.969-43.003,32.943-54.347l-7.261,69.526C2669.502,3239.634,2670.71,3240.987,2672.268,3241.001
				L2672.268,3241.001z"/>
			
				<linearGradient id="SVGID_00000028305593071946298110000006214943921746069162_" gradientUnits="userSpaceOnUse" x1="-1172.7544" y1="2532.9167" x2="-1351.5923" y2="3349.4978" gradientTransform="matrix(-1 -0.0095 -0.0095 1 1498.6437 56.9446)">
				<stop  offset="0" style="stop-color:#09005D"/>
				<stop  offset="1" style="stop-color:#1A0F91"/>
			</linearGradient>
			<path style="fill:url(#SVGID_00000028305593071946298110000006214943921746069162_);" d="M2583.571,2341.429
				c0,0,8.935,28.48-4.792,75.388l-85.153,297.36c-1.337,4.672,1.184,9.562,5.758,11.204c25.471,9.142,109.203,34.98,223.503,27.101
				c5.755-0.396,10.58-4.472,11.832-10.103c7.531-33.9,33.228-149.563,38.519-173.329c20.159-90.555,42.669-188.212-56.357-247.263
				C2671.244,2341.334,2628.678,2352.856,2583.571,2341.429z"/>
			<g>
				
					<linearGradient id="SVGID_00000168084583423723514080000017660176357383936919_" gradientUnits="userSpaceOnUse" x1="9151.1211" y1="1984.8866" x2="9158.2139" y2="2153.3328" gradientTransform="matrix(1 0 0 1 -6807.2744 0)">
					<stop  offset="0" style="stop-color:#09005D"/>
					<stop  offset="1" style="stop-color:#1A0F91"/>
				</linearGradient>
				<path style="fill:url(#SVGID_00000168084583423723514080000017660176357383936919_);" d="M2386.273,2056.162
					c2.286-5.032,1.715-11.627,1.2-16.843c-1.195-12.085-1.096-24.134-1.292-36.275c-0.507-31.455-0.229-62.99-2.723-94.369
					c-0.538-6.773,0.186-13.566-0.342-20.31c-1.341-17.117-11.38-22.169-28.081-25.74c-14.126-3.021-29.527-7.18-44.123-4.077
					c-5.749,1.222-11.28,4.366-11.999,10.367c-2.899,24.227-2.176,182.984,27.065,187.352c9.875,1.476,19.675,3.204,29.491,4.972
					c6.98,1.257,16.311,3.907,23.34,1.542C2382.646,2061.489,2384.943,2059.09,2386.273,2056.162z"/>
				
					<linearGradient id="SVGID_00000124854120139294015510000005058395998873869229_" gradientUnits="userSpaceOnUse" x1="9227.6348" y1="1851.7925" x2="9080.6719" y2="2032.4625" gradientTransform="matrix(1 0 0 1 -6807.2744 0)">
					<stop  offset="0" style="stop-color:#09005D"/>
					<stop  offset="1" style="stop-color:#1A0F91"/>
				</linearGradient>
				<path style="fill:url(#SVGID_00000124854120139294015510000005058395998873869229_);" d="M2374.674,2056.162
					c2.286-5.032,1.715-11.627,1.199-16.843c-1.195-12.085-1.096-24.134-1.292-36.275c-0.508-31.455-0.229-62.99-2.722-94.369
					c-0.538-6.773,0.186-13.566-0.342-20.31c-1.341-17.117-11.38-22.169-28.082-25.74c-14.126-3.021-29.527-7.18-44.123-4.077
					c-5.749,1.222-11.28,4.366-11.998,10.367c-2.9,24.227-2.177,182.984,27.064,187.352c9.875,1.476,19.675,3.204,29.491,4.972
					c6.98,1.257,16.311,3.907,23.341,1.542C2371.047,2061.489,2373.344,2059.09,2374.674,2056.162z"/>
			</g>
			
				<linearGradient id="SVGID_00000082347572818508519020000001144945417556692353_" gradientUnits="userSpaceOnUse" x1="9147.2471" y1="1926.8876" x2="9078.4209" y2="2011.4996" gradientTransform="matrix(1 0 0 1 -6807.2744 0)">
				<stop  offset="0" style="stop-color:#FEBBBA"/>
				<stop  offset="1" style="stop-color:#FF928E"/>
			</linearGradient>
			<path style="fill:url(#SVGID_00000082347572818508519020000001144945417556692353_);" d="M2294.482,2021.493
				c0,0-6.398-4.346-11.655-30.315c-5.258-25.969-10.477-41.699,0-53.746c10.476-12.048,26.714-12.571,26.714,0
				s-2.722,35.729-0.837,53.746C2310.588,2009.194,2306.137,2051.807,2294.482,2021.493z"/>
			<path style="fill:#91B3FA;" d="M2697.175,1758.251c12.108,2.572,23.78,8.314,32.738,17.29c4.383,4.573,7.81,10.079,10.046,16.05
				l1.487,4.557l0.852,4.71c0.602,3.174,0.892,6.104,1.403,9.155c4.431,24.058,15,47.026,30.708,65.763
				c7.743,9.449,16.761,17.856,26.758,24.897c9.95,7.151,21.042,12.4,32.234,17.752c11.177,5.297,22.518,10.253,34.024,14.804
				c11.469,4.647,23.126,8.864,35.071,12.199c-24.316-5.165-47.642-14.215-70.428-24.069c-11.37-4.874-22.757-10.38-33.09-17.564
				c-10.344-7.132-19.731-15.685-27.793-25.35c-15.887-19.498-26.785-43.085-30.651-67.924c-0.423-3.078-0.653-6.337-1.13-9.269
				l-0.661-4.465l-1.27-4.324c-1.927-5.688-5.018-10.988-9.054-15.532C2720.291,1767.826,2709.021,1761.718,2697.175,1758.251z"/>
			<path style="fill:#91B3FA;" d="M3018.036,2018.413c10.089,14.826,17.203,31.638,21.802,49.077
				c4.553,17.474,5.865,35.865,3.656,53.91c-2.651,17.979-9.045,35.417-18.915,50.611c-2.619,3.692-5.053,7.505-8.003,10.933
				c-1.436,1.739-2.794,3.544-4.292,5.226l-4.605,4.941c-3.002,3.36-6.552,6.169-9.789,9.265c-3.373,2.956-6.976,5.645-10.479,8.418
				c13.322-11.939,25.244-25.378,34.433-40.489c4.314-7.7,8.492-15.5,11.332-23.856c2.904-8.312,4.987-16.895,6.17-25.614
				c2.477-17.452,1.17-35.315-2.628-52.596c-1.872-8.662-4.462-17.178-7.602-25.499
				C3026.066,2034.379,3022.361,2026.245,3018.036,2018.413z"/>
			<g>
				<g>
					<path style="fill:#FFFFFF;" d="M2880.99,2588.503c-0.623,0-1.169-0.452-1.269-1.085c-0.111-0.697-11.226-69.766-32.671-81.98
						c-3.627-2.066-7.254-2.331-11.069-0.812c-29.01,11.548-14.394,76.928-14.244,77.586c0.161,0.693-0.275,1.383-0.965,1.542
						c-0.71,0.157-1.386-0.278-1.541-0.966c-0.636-2.78-15.239-68.197,15.798-80.553c4.531-1.8,9.002-1.475,13.296,0.97
						c22.51,12.824,33.478,80.92,33.933,83.812c0.111,0.702-0.368,1.361-1.068,1.472
						C2881.124,2588.498,2881.054,2588.503,2880.99,2588.503z"/>
				</g>
				<polygon style="fill:#7D97F4;" points="2900.729,2584.287 2791.236,2574.167 2766.861,2587.683 2787.75,2613.819 
					2887.758,2603.631 				"/>
				<polygon style="fill:#91B3FA;" points="2953.571,2846.126 2991.118,2824.547 2900.729,2584.287 2879.033,2598.933 				"/>
				<g>
					<path style="fill:#FFFFFF;" d="M2851.672,2616.532c-0.034,0-0.067-0.001-0.101-0.003c-0.707-0.055-1.236-0.675-1.182-1.383
						c0.053-0.7,4.893-70.705-15.074-93.541c-3.811-4.359-8.343-6.717-13.47-7.005c-5-0.3-9.609,1.499-13.685,5.3
						c-21.578,20.103-22.831,89.393-22.841,90.09c-0.01,0.71-0.606,1.325-1.306,1.268c-0.71-0.01-1.276-0.594-1.266-1.304
						c0.043-2.894,1.286-71.09,23.658-91.935c4.612-4.295,9.85-6.305,15.587-5.987c5.841,0.33,10.975,2.981,15.259,7.881
						c20.996,24.01,15.758,94.723,15.704,95.435C2852.901,2616.02,2852.338,2616.532,2851.672,2616.532z"/>
				</g>
				<polygon style="fill:#BDD0FB;" points="2766.799,2588.469 2879.033,2598.933 2953.571,2846.126 2792.446,2850.338 				"/>
				<g style="opacity:0.66;">
					<path style="fill:#FFFFFF;" d="M2955.833,2842.261c-0.122,0-0.25-0.017-0.379-0.047c-0.798-0.209-1.27-1.026-1.067-1.824
						l7.205-27.47l-56.84-176.365c-0.251-0.787,0.181-1.626,0.961-1.883c0.81-0.239,1.638,0.181,1.883,0.961l56.974,176.785
						c0.087,0.274,0.093,0.565,0.023,0.839l-7.315,27.89C2957.098,2841.818,2956.497,2842.261,2955.833,2842.261z"/>
				</g>
				<g style="opacity:0.66;">
					<path style="fill:#FFFFFF;" d="M2988.403,2825.038c-0.216,0-0.437-0.047-0.641-0.146l-19.432-9.291
						c-0.746-0.355-1.061-1.247-0.705-1.987c0.361-0.74,1.265-1.055,1.988-0.706l19.432,9.291c0.746,0.356,1.061,1.248,0.705,1.988
						C2989.493,2824.723,2988.957,2825.038,2988.403,2825.038z"/>
				</g>
			</g>
			
				<linearGradient id="SVGID_00000004526440273869823390000000697231326364425627_" gradientUnits="userSpaceOnUse" x1="2757.5808" y1="2073.718" x2="2809.0786" y2="2660.7937">
				<stop  offset="0" style="stop-color:#FEBBBA"/>
				<stop  offset="1" style="stop-color:#FF928E"/>
			</linearGradient>
			<path style="fill:url(#SVGID_00000004526440273869823390000000697231326364425627_);" d="M2689.101,2111.45
				c5.369,7.119,86.729,103.911,110.029,211.922c23.299,108.011,15.464,180.13,15.464,180.13s-23.672,17.654-15.162,30.177
				c8.51,12.521,6.265,21.042,17.143,23.472c10.879,2.429,24.368,5.853,22.721-15.621c-1.646-21.473,23.989-25.799,19.731-38.78
				c-4.238-12.92,24.772-361.505-115.559-456.058c-0.663-0.446-1.329-0.888-2-1.322
				C2682.144,2066.804,2680.469,2100.007,2689.101,2111.45z"/>
		</g>
	</g>
</g>
</svg>
