<svg xmlns="http://www.w3.org/2000/svg" xmlns:xlink="http://www.w3.org/1999/xlink" viewBox="0,0,256,256" width="50px" height="50px"><g fill="none" fill-rule="nonzero" stroke="none" stroke-width="1" stroke-linecap="butt" stroke-linejoin="miter" stroke-miterlimit="10" stroke-dasharray="" stroke-dashoffset="0" font-family="none" font-weight="none" font-size="none" text-anchor="none" style="mix-blend-mode: normal"><g transform="scale(2.56,2.56)"><circle cx="13" cy="29" r="2" fill="#ee3e54"></circle><circle cx="77" cy="13" r="1" fill="#f15919"></circle><circle cx="50" cy="50" r="37" fill="#0d0900"></circle><circle cx="83" cy="15" r="4" fill="#f15919"></circle><circle cx="87" cy="24" r="2" fill="#ee3e54"></circle><circle cx="81" cy="76" r="2" fill="#df3a30"></circle><circle cx="15" cy="63" r="4" fill="#df3a30"></circle><circle cx="25" cy="87" r="2" fill="#ee3e54"></circle><circle cx="18.5" cy="53.5" r="2.5" fill="#ffffff"></circle><circle cx="21" cy="67" r="1" fill="#f15919"></circle><circle cx="80" cy="34" r="1" fill="#ffffff"></circle><path d="M28.005,65.001l-0.004,-30c0,-3.866 3.134,-7.001 7,-7.001h29.999c3.866,0 7,3.134 7,7v30c0,3.866 -3.134,7 -7,7h-29.995c-3.866,0 -7,-3.133 -7,-6.999z" fill="#e24934"></path><path d="M65,28.4c3.639,0 6.6,2.961 6.6,6.6v30c0,3.639 -2.961,6.6 -6.6,6.6h-30c-3.639,0 -6.6,-2.961 -6.6,-6.6v-30c0,-3.639 2.961,-6.6 6.6,-6.6h30M65,27h-30c-4.418,0 -8,3.582 -8,8v30c0,4.418 3.582,8 8,8h30c4.418,0 8,-3.582 8,-8v-30c0,-4.418 -3.582,-8 -8,-8z" fill="#472b29"></path><path d="M61.5,59.5h-23c-1.657,0 -3,-1.343 -3,-3v-13c0,-1.657 1.343,-3 3,-3h23c1.657,0 3,1.343 3,3v13c0,1.657 -1.343,3 -3,3z" fill="#ffffff"></path><path d="M61.5,60h-23c-1.93,0 -3.5,-1.57 -3.5,-3.5v-13c0,-1.93 1.57,-3.5 3.5,-3.5h23c1.93,0 3.5,1.57 3.5,3.5v13c0,1.93 -1.57,3.5 -3.5,3.5zM38.5,41c-1.378,0 -2.5,1.122 -2.5,2.5v13c0,1.378 1.122,2.5 2.5,2.5h23c1.378,0 2.5,-1.122 2.5,-2.5v-13c0,-1.378 -1.122,-2.5 -2.5,-2.5z" fill="#472b29"></path><path d="M50,53.965c-1.076,0 -2.151,-0.409 -2.97,-1.228l-10.884,-10.883c-0.195,-0.195 -0.195,-0.512 0,-0.707c0.195,-0.195 0.512,-0.195 0.707,0l10.884,10.883c1.248,1.247 3.277,1.247 4.525,0l10.884,-10.884c0.195,-0.195 0.512,-0.195 0.707,0c0.195,0.195 0.195,0.512 0,0.707l-10.883,10.884c-0.819,0.819 -1.894,1.228 -2.97,1.228z" fill="#472b29"></path><path d="M36.5,59c-0.128,0 -0.256,-0.049 -0.354,-0.146c-0.195,-0.195 -0.195,-0.512 0,-0.707l8.5,-8.5c0.195,-0.195 0.512,-0.195 0.707,0c0.195,0.195 0.195,0.512 0,0.707l-8.5,8.5c-0.097,0.097 -0.225,0.146 -0.353,0.146z" fill="#472b29"></path><path d="M63.5,59c-0.128,0 -0.256,-0.049 -0.354,-0.146l-8.5,-8.5c-0.195,-0.195 -0.195,-0.512 0,-0.707c0.195,-0.195 0.512,-0.195 0.707,0l8.5,8.5c0.195,0.195 0.195,0.512 0,0.707c-0.097,0.097 -0.225,0.146 -0.353,0.146z" fill="#472b29"></path><path d="M69.5,42c-0.276,0 -0.5,-0.224 -0.5,-0.5v-6c0,-2.481 -2.019,-4.5 -4.5,-4.5h-13c-0.276,0 -0.5,-0.224 -0.5,-0.5c0,-0.276 0.224,-0.5 0.5,-0.5h13c3.033,0 5.5,2.467 5.5,5.5v6c0,0.276 -0.224,0.5 -0.5,0.5z" fill="#472b29"></path><path d="M48.5,31h-3c-0.276,0 -0.5,-0.224 -0.5,-0.5c0,-0.276 0.224,-0.5 0.5,-0.5h3c0.276,0 0.5,0.224 0.5,0.5c0,0.276 -0.224,0.5 -0.5,0.5z" fill="#472b29"></path><path d="M64.5,70h-29c-3.033,0 -5.5,-2.467 -5.5,-5.5v-29c0,-3.033 2.467,-5.5 5.5,-5.5h7c0.276,0 0.5,0.224 0.5,0.5c0,0.276 -0.224,0.5 -0.5,0.5h-7c-2.481,0 -4.5,2.019 -4.5,4.5v29c0,2.481 2.019,4.5 4.5,4.5h29c2.481,0 4.5,-2.019 4.5,-4.5v-4c0,-0.276 0.224,-0.5 0.5,-0.5c0.276,0 0.5,0.224 0.5,0.5v4c0,3.033 -2.467,5.5 -5.5,5.5z" fill="#472b29"></path><path d="M69.5,58c-0.276,0 -0.5,-0.224 -0.5,-0.5v-9c0,-0.276 0.224,-0.5 0.5,-0.5c0.276,0 0.5,0.224 0.5,0.5v9c0,0.276 -0.224,0.5 -0.5,0.5z" fill="#472b29"></path></g></g></svg>